<svg width="24" height="24" viewBox="0 0 24 24" fill="none" xmlns="http://www.w3.org/2000/svg">
<path fill-rule="evenodd" clip-rule="evenodd" d="M11.752 2.61574C13.546 1.13837 16.25 2.41473 16.25 4.73878V19.2622C16.2496 21.5859 13.5459 22.8622 11.752 21.3853L7.07715 17.5357C6.85335 17.3514 6.57215 17.2505 6.28223 17.2505H5.75C4.23138 17.2505 3.00026 16.0191 3 14.5005V9.5005C3 7.98172 4.23122 6.7505 5.75 6.7505H6.28223C6.57205 6.7505 6.85338 6.64953 7.07715 6.46535L11.752 2.61574ZM14.75 4.73878C14.75 3.68239 13.5205 3.10238 12.7051 3.77394L8.03027 7.62355C7.53801 8.02872 6.91981 8.2505 6.28223 8.2505H5.75C5.05964 8.2505 4.5 8.81015 4.5 9.5005V14.5005C4.50026 15.1906 5.0598 15.7505 5.75 15.7505H6.28223C6.91991 15.7505 7.53797 15.9722 8.03027 16.3775L12.7051 20.2271C13.5204 20.8982 14.7496 20.3182 14.75 19.2622V4.73878Z" fill="white"/>
<path d="M17.3447 9.13624C17.5459 8.77433 18.0022 8.64418 18.3643 8.84523L18.3672 8.8462L18.3701 8.84816C18.3725 8.84951 18.3761 8.85141 18.3789 8.85304C18.3845 8.85628 18.3911 8.86034 18.3984 8.86476C18.4137 8.87399 18.433 8.88637 18.4551 8.90089C18.4994 8.9301 18.5572 8.97059 18.623 9.02296C18.7546 9.12772 18.9239 9.28337 19.0908 9.4966C19.4306 9.93084 19.75 10.5904 19.75 11.5005C19.7499 12.4106 19.4306 13.0702 19.0908 13.5044C18.9239 13.7176 18.7546 13.8733 18.623 13.978C18.5572 14.0304 18.4994 14.0709 18.4551 14.1001C18.433 14.1146 18.4137 14.127 18.3984 14.1362C18.3911 14.1407 18.3845 14.1447 18.3789 14.148C18.3761 14.1496 18.3725 14.1515 18.3701 14.1528L18.3672 14.1548L18.3652 14.1558C18.3652 14.1558 18.3579 14.1449 18 13.5005L18.3652 14.1558C18.0034 14.3566 17.546 14.2263 17.3447 13.8648C17.1437 13.5028 17.274 13.0465 17.6357 12.8452L17.6309 12.8472C17.6412 12.8404 17.6622 12.8259 17.6895 12.8042C17.7453 12.7597 17.8264 12.6853 17.9092 12.5796C18.0692 12.3751 18.2499 12.0343 18.25 11.5005C18.25 10.9666 18.0692 10.626 17.9092 10.4214C17.8264 10.3157 17.7453 10.2413 17.6895 10.1968C17.6622 10.1751 17.6413 10.1607 17.6309 10.1538L17.6348 10.1558L17.6357 10.1548C17.2743 9.95357 17.144 9.49808 17.3447 9.13624Z" fill="white"/>
</svg>
